<svg width="1688" height="79" viewBox="0 0 1688 79" fill="none" xmlns="http://www.w3.org/2000/svg">
	<path d="M729.5 32.0332H745.027C745.32 30.5488 745.584 29.0645 745.818 27.5801H723.641V20.666H738.523C737.215 18.9863 735.75 17.1895 734.129 15.2754L741.746 12.873C743.934 15.1387 745.828 17.2285 747.43 19.1426L743.006 20.666H755.955C758.104 18.0684 760.164 15.4316 762.137 12.7559L770.105 15.0996L765.301 20.666H780.594V27.5801H754.432L753.523 32.0332H775.438V70.8223H767V67.3652H737.938V70.8223H729.5V32.0332ZM767 38.5957H737.938V41.9355H767V38.5957ZM737.938 51.3691H767V48.0293H737.938V51.3691ZM737.938 60.8027H767V57.4629H737.938V60.8027ZM789.266 56.291V28.752H803.826C804.764 26.5449 805.545 24.4551 806.17 22.4824H784.051V15.4512H839.949V22.4824H815.721C814.764 24.6699 813.787 26.7598 812.791 28.752H834.969V55.9395H826.883V35.7832H797.352V56.291H789.266ZM808.367 39.0059H816.57V40.5879C816.57 45.2363 816.082 49.1816 815.105 52.4238C824.949 56.4473 833.504 60.2754 840.77 63.9082L836.258 71.1152C829.148 67.1113 821.102 63.0195 812.117 58.8398C807.898 64.7969 800.086 68.9082 788.68 71.1738C787.117 68.3223 785.203 65.4512 782.938 62.5605C792.742 61.584 799.432 59.5039 803.006 56.3203C806.58 53.1172 808.367 47.9121 808.367 40.7051V39.0059ZM884.07 12.8145C886.414 16.1348 888.27 18.9277 889.637 21.1934L885.594 23.3027H899.891V29.6309H888.758V35.9004H899.422V41.9355H888.758V48.2637H899.422V54.2988H888.758V60.627H900.594V66.8379H872V70.9395H864.383V39.709C863.953 40.334 863.543 40.959 863.152 41.584C861.941 38.8496 860.691 36.3887 859.402 34.2012C864.363 27.0918 867.762 19.9824 869.598 12.873L877.098 14.6895C876.043 17.502 874.832 20.373 873.465 23.3027H882.371C881.199 21.0371 879.832 18.6152 878.27 16.0371L884.07 12.8145ZM843.348 23.8887H849.383V13.2832H857.117V23.8887H861.043V31.3887H857.117V39.709C858.367 39.3184 859.676 38.9082 861.043 38.4785C860.848 41.7988 860.77 44.4551 860.809 46.4473C859.559 46.8379 858.328 47.248 857.117 47.6777V63.5566C857.117 67.9316 855.242 70.1973 851.492 70.3535C849.344 70.5488 847.176 70.666 844.988 70.7051C844.598 68.3613 844.012 65.7832 843.23 62.9707C844.363 63.0879 845.77 63.1465 847.449 63.1465C848.738 63.1465 849.383 62.209 849.383 60.334V50.1973C847.312 50.9004 845.223 51.6035 843.113 52.3066L842.645 43.8691C844.441 43.4395 846.688 42.834 849.383 42.0527V31.3887H843.348V23.8887ZM872 60.627H881.141V54.2988H872V60.627ZM872 48.2637H881.141V41.9355H872V48.2637ZM872 35.9004H881.141V29.6309H872V35.9004ZM947.234 13.3418V17.7363H960.477V24.416H947.234V27.8145H939.266V24.416H925.027V27.2285L928.074 27.7559C927.801 28.3613 927.518 28.9668 927.225 29.5723H960.359V36.252H923.621C922.234 38.5371 920.711 40.7832 919.051 42.9902V70.7051H911.141V52.1016C909.207 54.0547 907.156 55.9785 904.988 57.873C904.363 54.8262 903.66 51.7207 902.879 48.5566C907.488 44.6699 911.316 40.5684 914.363 36.252H903.641V29.5723H918.318C918.611 28.9863 918.885 28.4004 919.139 27.8145H917.059V24.416H903.406V17.7363H917.059V13.5176H925.027V17.7363H939.266V13.3418H947.234ZM921.688 50.959H938.621V48.7324L946.18 45.627H925.027V39.1816H957.43V46.0957L946.648 50.6074V50.959H960.711V57.5215H946.648V62.5605C946.648 64.1035 946.385 65.4121 945.857 66.4863C945.33 67.5605 944.5 68.4297 943.367 69.0938C942.254 69.7578 940.701 70.1289 938.709 70.207C936.717 70.3047 933.562 70.373 929.246 70.4121C928.855 68.3418 928.348 65.959 927.723 63.2637C930.652 63.4199 932.977 63.498 934.695 63.498C936.531 63.498 937.645 63.2246 938.035 62.6777C938.426 62.1113 938.621 61.4863 938.621 60.8027V57.5215H921.688V50.959Z" fill="white"/>
	<path d="M680 32H0L5.20166 40H680V32Z" fill="#D22E81"/>
	<rect width="674.325" height="2" transform="matrix(-1 0 0 1 680 46)" fill="#D22E81"/>
	<path d="M1008 32H1688L1682.8 40H1008V32Z" fill="#7AE9E3"/>
	<rect x="1008" y="46" width="674.325" height="2" fill="#7AE9E3"/>
</svg>
