<svg width="234" height="50" viewBox="0 0 234 50" fill="none" xmlns="http://www.w3.org/2000/svg">
	<rect width="234" height="50" rx="8" fill="black" fill-opacity="0.76"/>
	<path d="M48.6539 22.2137L63.7528 22.1393L56.4919 42.1053L48.6539 22.2137ZM50.3845 14.9767L61.8867 15.0882L63.9224 19.9499L48.9931 19.8384L50.3841 14.9767H50.3845ZM47.0934 19.6896L38 15.5335L42.886 11.5625L48.7219 14.8656L47.0934 19.6901V19.6896ZM38 17.9456L46.6183 22.1393L55.8812 41.957L38 17.9456ZM65.9245 22.1021L74 17.5374L57.001 41.8454L65.9245 22.1021ZM65.7549 19.6529L63.4816 14.5314L68.6728 11.377L73.1517 15.4964L65.7549 19.6529ZM50.2149 12.5275L48.2468 11.9706L44.5486 9.70687L48.8915 8H63.0745L67.3834 9.96717L63.2441 12.157L61.8531 12.5279H50.2149V12.5275Z" fill="#F0A535"/>
</svg>
