<svg width="32" height="32" viewBox="0 0 32 32" fill="none" xmlns="http://www.w3.org/2000/svg">
	<g clip-path="url(#clip0_419_3829)">
		<path fill-rule="evenodd" clip-rule="evenodd" d="M15.9922 32C12.8277 32 9.73426 31.0616 7.10307 29.3035C4.47188 27.5454 2.42112 25.0466 1.21012 22.1229C-0.000880003 19.1993 -0.317733 15.9823 0.29963 12.8786C0.916994 9.77487 2.44085 6.92394 4.67849 4.6863C6.91613 2.44866 9.76705 0.924806 12.8707 0.307443C15.9744 -0.309921 19.1915 0.0069325 22.1151 1.21793C25.0387 2.42894 27.5376 4.4797 29.2957 7.11088C31.0538 9.74207 31.9922 12.8355 31.9922 16C31.9922 20.2435 30.3065 24.3131 27.3059 27.3137C24.3053 30.3143 20.2357 32 15.9922 32ZM16.0402 4.02001C13.6423 4.02001 11.2982 4.73109 9.30436 6.06334C7.31055 7.39559 5.75659 9.28916 4.83898 11.5046C3.92138 13.72 3.68134 16.1578 4.14923 18.5097C4.61712 20.8615 5.77191 23.0218 7.46759 24.7173C9.16326 26.4129 11.3236 27.5675 13.6755 28.0352C16.0274 28.5029 18.4652 28.2626 20.6805 27.3448C22.8959 26.427 24.7893 24.8729 26.1214 22.879C27.4535 20.8851 28.1644 18.541 28.1642 16.143C28.1639 12.9277 26.8865 9.84417 24.6128 7.57069C22.3391 5.29722 19.2555 4.02001 16.0402 4.02001ZM24.0002 18.894H15.0852V22L7.00019 16L15.0872 10V13.1H24.0002V18.89V18.894Z" fill="white"/>
	</g>
	<defs>
		<clipPath id="clip0_419_3829">
			<rect width="32" height="32" fill="white"/>
		</clipPath>
	</defs>
</svg>
