<svg width="32" height="32" viewBox="0 0 32 32" fill="none" xmlns="http://www.w3.org/2000/svg">
	<g clip-path="url(#clip0_366_3236)">
		<path fill-rule="evenodd" clip-rule="evenodd" d="M20.623 22.843C20.4737 22.8558 20.3236 22.8302 20.1868 22.7688C20.0501 22.7074 19.9314 22.6121 19.8418 22.4919C19.7522 22.3718 19.6947 22.2308 19.6748 22.0822C19.6549 21.9337 19.6732 21.7825 19.728 21.643C19.728 21.643 23.807 18.556 23.376 15.382V15.346C23.376 15.346 23.099 11.691 20.376 10.154C20.3348 10.0211 20.3276 9.87997 20.3552 9.74358C20.3828 9.60719 20.4442 9.47992 20.5338 9.37348C20.6234 9.26703 20.7383 9.18483 20.868 9.13442C20.9977 9.08401 21.138 9.06701 21.276 9.085C22.3406 9.75776 23.2323 10.6712 23.8792 11.7518C24.526 12.8324 24.91 14.0498 25 15.306C24.993 15.586 24.755 20.763 20.627 22.844L20.623 22.843ZM21.074 16.281C21.0462 17.172 20.7792 18.0391 20.301 18.7915C19.8227 19.5438 19.151 20.1536 18.356 20.557C18.2281 20.5562 18.1028 20.5212 17.993 20.4556C17.8832 20.39 17.793 20.2962 17.7317 20.1839C17.6705 20.0716 17.6404 19.945 17.6447 19.8171C17.649 19.6893 17.6874 19.5649 17.756 19.457C17.756 19.457 19.811 17.385 19.745 16.25V15.514C19.745 15.514 19.314 12.774 17.657 12.44C17.616 12.3075 17.6089 12.1669 17.6362 12.031C17.6636 11.8951 17.7245 11.7682 17.8135 11.6619C17.9025 11.5556 18.0167 11.4733 18.1457 11.4224C18.2747 11.3716 18.4144 11.3539 18.552 11.371C19.2968 11.729 19.9271 12.2875 20.372 12.9838C20.817 13.6801 21.0591 14.4867 21.071 15.313V16.282L21.074 16.281ZM11.625 19.881V19.641H8.907C8.66591 19.6399 8.43507 19.5434 8.26506 19.3724C8.09505 19.2015 7.99974 18.9701 8 18.729V13.388C7.99921 13.1466 8.09429 12.9147 8.26435 12.7433C8.43442 12.5719 8.66557 12.4751 8.907 12.474H11.628C11.654 12.474 11.676 12.487 11.701 12.489L15.728 8H16.294V24H15.728L11.625 19.881Z" fill="white"/>
		<path fill-rule="evenodd" clip-rule="evenodd" d="M15.9912 32C12.8267 32 9.73328 31.0616 7.10209 29.3035C4.47091 27.5454 2.42015 25.0466 1.20915 22.1229C-0.00185645 19.1993 -0.31871 15.9823 0.298654 12.8786C0.916017 9.77487 2.43987 6.92394 4.67751 4.6863C6.91515 2.44866 9.76608 0.924806 12.8698 0.307443C15.9735 -0.309921 19.1905 0.0069325 22.1142 1.21793C25.0378 2.42894 27.5366 4.4797 29.2947 7.11088C31.0528 9.74207 31.9912 12.8355 31.9912 16C31.9912 20.2435 30.3055 24.3131 27.3049 27.3137C24.3043 30.3143 20.2347 32 15.9912 32ZM16.0402 4.02001C13.6423 4.02001 11.2982 4.73109 9.30438 6.06334C7.31058 7.39559 5.75661 9.28916 4.83901 11.5046C3.9214 13.72 3.68136 16.1578 4.14925 18.5097C4.61714 20.8615 5.77194 23.0218 7.46761 24.7173C9.16328 26.4129 11.3237 27.5675 13.6756 28.0352C16.0274 28.5029 18.4652 28.2626 20.6806 27.3448C22.8959 26.427 24.7894 24.8729 26.1214 22.879C27.4535 20.8851 28.1644 18.541 28.1642 16.143C28.164 12.9277 26.8865 9.84417 24.6128 7.57069C22.3392 5.29722 19.2555 4.02001 16.0402 4.02001Z" fill="white"/>
	</g>
	<defs>
		<clipPath id="clip0_366_3236">
			<rect width="32" height="32" fill="white"/>
		</clipPath>
	</defs>
</svg>
