<svg width="75" height="75" viewBox="0 0 75 75" fill="none" xmlns="http://www.w3.org/2000/svg">
	<rect width="75" height="75" rx="12" fill="#ECB43B"/>
	<path d="M67.5063 31.699C67.8354 31.8633 68 32.1497 68 32.5579C68 32.9662 67.8354 33.2525 67.5063 33.4169L58.1612 38.3273V52.205C58.1612 52.6192 57.9967 52.8996 57.6668 53.0639L37.9944 63.8777H37.8664C37.7867 63.9565 37.6653 63.9996 37.5007 63.9996C37.3362 63.9996 37.2141 63.9572 37.1344 63.8777H37.0123L17.334 53.0699C17.0048 52.9055 16.8395 52.6192 16.8395 52.2109V38.3266L7.49443 33.4176C7.16456 33.2533 7 32.9669 7 32.5587C7 32.1504 7.16456 31.8641 7.49443 31.6997L14.9973 27.6482L7.49443 23.5967C7.16456 23.4264 7 23.1401 7 22.7318C7 22.3235 7.16456 22.0372 7.49443 21.8729L28.1549 11.0591C28.4848 10.9803 28.8139 10.9803 29.1371 11.0591L37.5 15.6037L45.8629 11.0591C46.1921 10.9803 46.5212 10.9803 46.8451 11.0591L67.5056 21.8669C67.8347 22.0372 67.9993 22.3243 67.9993 22.7318C67.9993 23.1393 67.8347 23.4264 67.5056 23.5907L60.0086 27.6423L67.5056 31.6997L67.5063 31.699ZM17.083 26.5394L35.4076 16.7125L28.6426 13.0269L10.0746 22.7318L17.083 26.5394ZM10.0746 32.5587L28.6426 42.2636L35.4076 38.5779L17.083 28.7511L10.0746 32.5587ZM18.8039 51.5967L36.5119 61.3016V40.2958L29.1311 44.2254C29.0514 44.305 28.8869 44.3474 28.6367 44.3474C28.3865 44.3474 28.2279 44.305 28.1422 44.2254L18.8031 39.3149V51.5967H18.8039ZM55.8246 27.6423L37.5 17.8154L19.1754 27.6423L37.5 37.4691L55.8246 27.6423ZM56.1969 39.3149L46.8458 44.2254C46.7662 44.305 46.6016 44.3474 46.3514 44.3474C46.1012 44.3474 45.9426 44.305 45.8577 44.2254L38.477 40.2958V61.3016L56.185 51.5967V39.3149H56.1969ZM39.5924 16.7125L57.917 26.5394L64.9262 22.7318L46.3574 13.0269L39.5924 16.7125ZM64.9254 32.5579L57.9162 28.7503L39.5917 38.5772L46.3566 42.2628L64.9254 32.5579Z" fill="white"/>
</svg>
