<svg width="36" height="30" viewBox="0 0 36 30" fill="none" xmlns="http://www.w3.org/2000/svg">
	<path d="M35.5271 9.38913L29.2809 0.986235C28.8219 0.367074 28.0839 0 27.3009 0H8.79646C8.00444 0 7.25742 0.375919 6.79841 1.01277L0.452707 9.7739C-0.217245 10.7026 -0.136244 11.9631 0.646774 12.8034L16.0011 29.22C16.9726 30.2593 18.6382 30.2593 19.6102 29.2244L35.3515 12.4451C36.143 11.6004 36.2201 10.3179 35.5271 9.38913ZM22.5893 9.2255H13.4091C12.419 9.2255 11.609 8.42943 11.609 7.45647C11.609 6.4835 12.419 5.68743 13.4091 5.68743H22.5893C23.5793 5.68743 24.3893 6.4835 24.3893 7.45647C24.3893 8.42943 23.5793 9.2255 22.5893 9.2255Z" fill="white"/>
</svg>
