<svg width="39" height="33" viewBox="0 0 39 33" fill="none" xmlns="http://www.w3.org/2000/svg">
<path d="M38.0955 11.2621C38.61 11.2144 39 10.8273 39 10.3665V2.1389C39 0.959166 37.941 0 36.6401 0H2.35917C1.05896 0 0 0.959166 0 2.1389V10.3665C0 10.8273 0.389993 11.2144 0.903816 11.2621C3.85581 11.5348 6.08261 13.7868 6.08261 16.5003C6.08261 19.2138 3.85581 21.4646 0.903816 21.7373C0.389281 21.7849 0 22.172 0 22.6329V30.8605C0 32.0402 1.05896 33 2.35917 33H36.6401C37.9403 33 38.9993 32.0396 39 30.8605V22.6329C39 22.172 38.61 21.7849 38.0955 21.7373C35.1435 21.4646 32.9174 19.2132 32.9174 16.5003C32.9174 13.7874 35.1435 11.5348 38.0955 11.2621ZM24.9069 12.2054C25.4627 12.2054 25.9146 12.609 25.9146 13.1054C25.9146 13.6018 25.4627 14.0055 24.9069 14.0055H20.5074V17.708H24.9069C25.4627 17.708 25.9146 18.111 25.9146 18.6074C25.9146 19.1039 25.4627 19.5075 24.9069 19.5075H20.5074V24.8957C20.5074 25.3928 20.0562 25.7958 19.4996 25.7958C18.9431 25.7958 18.4919 25.3928 18.4919 24.8957V19.5075H14.0924C13.5366 19.5075 13.0847 19.1045 13.0847 18.6074C13.0847 18.1104 13.5366 17.708 14.0924 17.708H18.4919V14.0055H14.0924C13.5366 14.0055 13.0847 13.6025 13.0847 13.1054C13.0847 12.6084 13.5366 12.2054 14.0924 12.2054H17.1255L13.3672 8.72847C12.9815 8.37125 12.9922 7.80109 13.3936 7.45594C13.7949 7.11016 14.4319 7.12096 14.8183 7.47819L19.4996 11.81L24.181 7.47819C24.5696 7.12096 25.2072 7.11079 25.6064 7.45594C26.0078 7.80109 26.0185 8.37125 25.6328 8.72847L21.8738 12.2054H24.9069Z" fill="white"/>
</svg>
