<svg width="162" height="39" viewBox="0 0 162 39" fill="none" xmlns="http://www.w3.org/2000/svg">
	<path fill-rule="evenodd" clip-rule="evenodd" d="M51.2806 0.514706H0V33.8306L4.46191 38.3581H51.2806V22.9842H64.1007V38.3581H81.5827V22.9842H93.2374V38.3581H130.532V15.8886H111.885V4.06253H134.029V38.3581H141.022V22.9842H153.842V38.3581H162V0.514706H153.842V15.8886H141.022V0.514706H104.892V22.9842H123.54V34.8103H100.23V0.514706H74.5899V34.8103H69.9281V0.514706H64.1007V15.8886H51.2806V0.514706ZM3.49641 4.06253H22.1439V22.9842V34.8103H16.3166H5.82734V33.6277H3.49641V27.7147H16.3166V22.9842H3.49641V4.06253ZM10.4892 11.1582H15.5624V15.8886H10.4892V11.1582ZM25.6403 4.06253H44.2878V34.8103H37.295V11.1582H25.6403V4.06253ZM81.5827 7.61035H93.2374V15.8886H81.5827V7.61035Z" fill="url(#paint0_linear_54_385)"/>
	<defs>
		<linearGradient id="paint0_linear_54_385" x1="162" y1="0.514706" x2="0" y2="0.514706" gradientUnits="userSpaceOnUse">
			<stop offset="0.630208" stop-color="white"/>
			<stop offset="0.634667" stop-color="#FF9C00"/>
		</linearGradient>
	</defs>
</svg>
