<svg width="284" height="64" viewBox="0 0 284 64" fill="none" xmlns="http://www.w3.org/2000/svg">
<path d="M0.0258789 38.5188L5.48906 37.4062L28.0105 48.9925L21.5572 50.5919L0.0258789 38.5188Z" fill="#FF9B17"/>
<path d="M9.30354 14.5889L16.2372 11.0127L15.9418 25.0336L9.0049 28.6065L9.30354 14.5889Z" fill="#CE7811"/>
<path d="M9.22231 27.0335L15.9417 25.0342L27.9231 30.974L20.9894 34.5502L9.22231 27.0335Z" fill="#FF9B17"/>
<path d="M38.7714 15.8526L38.6091 15.9365L31.8377 19.4288L30.6951 18.8419L30.6821 18.8322L16.2305 11.3929L15.8637 11.2059L-1.14441e-05 3.03778L8.79042 0.393555L22.7681 7.60069L22.7843 7.61037L31.4287 12.0669L38.7714 15.8526Z" fill="#FF9B17"/>
<path d="M38.7712 15.8525V15.9848L38.7485 27.9289V28.1934L38.6868 60.4239L31.7531 64.0001L31.8375 19.4287L38.6089 15.9364L38.7712 15.8525Z" fill="#D6D6D6"/>
<path d="M30.6951 18.8427L30.6821 18.833L16.2305 11.3937L15.8637 11.2067L-1.52588e-05 3.03857L0.100614 30.5934L21.1743 41.496L21.1256 45.4527L21.0769 49.3448L0.46093 38.7615L0.438208 38.7518L0.107106 38.5809L0.149305 47.5293L31.7533 64.001L31.815 31.5124L31.8312 22.3157L31.8344 21.9513L31.8377 20.0874V19.4296L30.6951 18.8427ZM16.0422 20.2744L21.2522 22.938L21.1256 27.6041L20.9892 32.6152L10.777 27.6944L9.339 26.9979L9.32926 26.9946V16.8466L16.0422 20.2744Z" fill="#F9F9F9"/>
<path d="M54.4336 52.4788L47.6947 49.3025L47.6168 11.1934L54.3589 15.4112L54.4336 52.4788Z" fill="#CE7811"/>
<path d="M63.9739 2.9796L47.8181 11.3186L47.6168 11.4218L40.0696 15.3172L32.7172 11.4476L54.7225 0L63.9739 2.9796Z" fill="#FF9B17"/>
<path d="M38.7713 15.9849L38.7486 27.929V27.9484L31.815 31.5117L31.7922 31.5246L31.8312 22.3149L31.8344 21.9505L31.8442 19.561L38.7356 16.0042L38.7713 15.9849Z" fill="#D6D6D6"/>
<path d="M63.9999 47.6121L54.4336 52.4782L54.359 19.9251L47.6428 23.3788L40.0664 27.2645L40.0599 15.3139L47.6168 11.4217L47.8181 11.3185L63.9739 2.97949L63.9999 47.6121Z" fill="#D6D6D6"/>
<path d="M123.486 9.83838V55.0005H112.266V38.0528H99.0626L84 23.0371V9.83838H95.2162V18.4042L103.71 26.8715H112.266V9.83838H123.486ZM84.0033 28.0938L95.2195 39.2751V55.0005H84.0033V28.0938Z" fill="white"/>
<path d="M149.425 23.2013L155.971 34.0081L143.199 55.0005H130.078L149.425 23.2013ZM186.057 55.0005H172.935L170.216 50.5319L151.548 19.7152L158.067 9.00049L186.057 55.0005Z" fill="white"/>
<path d="M237.352 36.8864C237.741 38.1875 237.938 39.5412 237.938 40.9114C237.938 42.2947 237.737 43.6648 237.338 44.9791C236.482 47.8179 234.695 50.3677 232.312 52.1617C229.847 54.0181 226.907 54.9972 223.809 54.9972H192.635V43.8159H223.809C225.414 43.8159 226.722 42.5148 226.722 40.9114C226.722 39.3079 225.417 38.0068 223.809 38.0068H206.765C205.377 38.0068 204.003 37.8064 202.685 37.4088C200.463 36.7418 198.42 35.5228 196.772 33.8799C195.124 32.2371 193.901 30.1999 193.232 27.9854C192.833 26.6711 192.632 25.3042 192.632 23.9177C192.632 22.5344 192.833 21.1642 193.232 19.8499C193.901 17.6387 195.124 15.5982 196.772 13.9554C198.42 12.3125 200.463 11.0935 202.685 10.4265C203.017 10.328 203.347 10.2392 203.67 10.1702L204.155 10.0618L215.14 21.0131H206.765C205.16 21.0131 203.851 22.3142 203.851 23.9177C203.851 25.5178 205.157 26.8222 206.765 26.8222H223.809C223.874 26.8222 223.94 26.8222 224.006 26.8255H224.056C224.095 26.8255 224.141 26.8288 224.188 26.8288L224.286 26.8321C224.441 26.8387 224.58 26.8419 224.708 26.8518C224.745 26.8551 224.781 26.8551 224.814 26.8584L224.896 26.8649C224.929 26.8682 224.965 26.8715 225.002 26.8715C225.031 26.8748 225.058 26.8781 225.081 26.8781L225.11 26.8814C225.272 26.8945 225.42 26.9109 225.559 26.9274L225.578 26.9307C225.671 26.9438 225.76 26.9537 225.852 26.9668L225.895 26.9734C226.027 26.9931 226.165 27.0161 226.32 27.0424L226.485 27.0719C226.607 27.0949 226.722 27.1179 226.838 27.1442L226.877 27.1541C227.022 27.1869 227.167 27.2198 227.312 27.2592H227.391L227.507 27.3085C227.543 27.3184 227.576 27.3282 227.612 27.3381L227.642 27.3479C227.764 27.3808 227.882 27.4169 228.001 27.4531L228.034 27.4629C228.271 27.5385 228.509 27.6174 228.739 27.7028L228.815 27.7324C228.967 27.7882 229.118 27.8507 229.273 27.9131L229.309 27.9295C229.487 28.0051 229.665 28.0839 229.84 28.1661L229.847 28.1694C229.906 28.1989 229.962 28.2252 230.015 28.2515L230.028 28.2581C230.127 28.3074 230.229 28.3599 230.331 28.4125L230.344 28.4191C230.552 28.5275 230.75 28.6359 230.938 28.7477L230.948 28.7542L231.257 28.9415C231.402 29.0335 231.538 29.1189 231.663 29.2011L231.692 29.2208C231.831 29.3161 231.969 29.4114 232.098 29.5034L232.157 29.5494C232.431 29.7498 232.701 29.9601 232.955 30.1769L232.968 30.1868C233.064 30.2657 233.162 30.3544 233.275 30.4562C233.34 30.5154 233.406 30.5778 233.476 30.6402L233.502 30.6665C233.525 30.6862 233.545 30.7059 233.568 30.7289L233.68 30.8374C233.713 30.8702 233.749 30.9031 233.782 30.9359L233.789 30.9425C233.845 30.9984 233.898 31.0542 233.954 31.1101L233.963 31.1199C234.164 31.3269 234.362 31.5438 234.553 31.7672C234.593 31.8132 234.633 31.8592 234.672 31.9085L234.794 32.0564C234.824 32.0925 234.853 32.1287 234.883 32.1681L234.909 32.2009C234.952 32.2568 234.995 32.3127 235.038 32.3652C235.051 32.3817 235.061 32.3948 235.074 32.4112L235.12 32.4737C235.199 32.5788 235.279 32.6872 235.358 32.7957L235.377 32.8252C235.433 32.9041 235.486 32.9797 235.536 33.0552L235.552 33.0815C235.595 33.1472 235.641 33.2162 235.684 33.2819L235.766 33.4101C235.997 33.7748 236.211 34.1494 236.406 34.5305L236.449 34.6192C236.574 34.8689 236.696 35.1285 236.805 35.3881L236.864 35.5294C236.874 35.5491 236.88 35.5721 236.89 35.5918L236.907 35.5852L237.104 36.1471C237.114 36.1767 237.128 36.2095 237.137 36.2391L237.141 36.2457C237.157 36.2949 237.177 36.3475 237.193 36.3968L237.362 36.8831L237.352 36.8864ZM237.938 9.83838V21.0197H220.269L209.049 9.83838H237.938Z" fill="white"/>
<path d="M284 9.83838V55.0005H272.78V38.0528H259.577L244.514 23.0371V9.83838H255.73V18.4042L264.224 26.8715H272.78V9.83838H284ZM244.514 28.0938L255.73 39.2751V55.0005H244.514V28.0938Z" fill="white"/>
</svg>
