<svg width="8" height="7" viewBox="0 0 8 7" fill="none" xmlns="http://www.w3.org/2000/svg">
	<path d="M7.47177 3.75069C7.32151 3.75069 7.17114 3.70903 7.07097 3.62561L4.31556 0.916886C4.21528 0.875222 4.1652 0.833558 4.01494 0.833558C3.96485 0.833558 3.81459 0.875222 3.76451 0.916886L0.858732 3.58403C0.658276 3.75078 0.357759 3.75078 0.157414 3.6257C-0.0430413 3.45904 -0.0430413 3.20896 0.107217 3.04231L3.01299 0.375069C3.26342 0.124992 3.66422 0 4.06502 0C4.46582 0 4.81654 0.166657 5.11705 0.416733L7.87246 3.08388C8.07281 3.25063 8.02272 3.50061 7.82237 3.66727C7.7222 3.70893 7.57205 3.75069 7.47177 3.75069Z" fill="#4BABE3"/>
	<path d="M7.47165 6.75125C7.32139 6.75125 7.17102 6.70958 7.07085 6.62616L4.31544 3.91744C4.21516 3.87578 4.16507 3.83411 4.01482 3.83411C3.96473 3.83411 3.81447 3.87578 3.76438 3.91744L0.858609 6.58459C0.658154 6.75134 0.357637 6.75134 0.157292 6.62625C-0.0431634 6.4596 -0.0431634 6.20952 0.107095 6.04286L3.01287 3.37562C3.2633 3.12555 3.6641 3.00056 4.0649 3.00056C4.4657 3.00056 4.81642 3.16721 5.11693 3.41729L7.87234 6.08444C8.07268 6.25118 8.0226 6.50117 7.82225 6.66783C7.72208 6.70949 7.57193 6.75125 7.47165 6.75125Z" fill="#4BABE3"/>
</svg>
