<svg width="8" height="7" viewBox="0 0 8 7" fill="none" xmlns="http://www.w3.org/2000/svg">
	<mask id="mask0_98_84" style="mask-type:luminance" maskUnits="userSpaceOnUse" x="0" y="0" width="9" height="7">
		<path d="M8.00017 0H0.00161743V7H8.00017V0Z" fill="white"/>
	</mask>
	<g mask="url(#mask0_98_84)">
		<path d="M7.6105 4.40969H0.386124C0.17279 4.40969 0 4.58526 0 4.80202C0 4.8844 0.025098 4.96091 0.0675716 5.02368C0.0859125 5.06781 0.113906 5.10901 0.148658 5.1453L1.8505 6.87347C1.92579 6.94998 2.02425 6.98823 2.12368 6.98823C2.22311 6.98823 2.32157 6.94998 2.39686 6.87347C2.54745 6.72047 2.54745 6.47232 2.39686 6.31834L1.28869 5.19434H7.60953C7.82287 5.19434 7.99566 5.01877 7.99566 4.80202C7.99566 4.58526 7.82383 4.40969 7.6105 4.40969ZM0.386124 2.58932H7.6105C7.82383 2.58932 7.99662 2.41376 7.99662 2.197C7.99662 2.11461 7.97152 2.03811 7.92905 1.97534C7.91553 1.94297 7.89623 1.91159 7.87306 1.88216L6.48109 0.153984C6.34594 -0.0137335 6.10268 -0.0382536 5.93762 0.099059C5.77255 0.236372 5.74842 0.483534 5.88356 0.651252L6.81315 1.80468H0.386124C0.17279 1.80468 0 1.98024 0 2.197C0 2.41376 0.17279 2.58932 0.386124 2.58932Z" fill="#B3B3B3"/>
	</g>
</svg>
