<svg width="75" height="75" viewBox="0 0 75 75" fill="none" xmlns="http://www.w3.org/2000/svg">
	<rect width="75" height="75" rx="12" fill="#ECB43B"/>
	<path d="M63.5792 29.5328L63.5655 29.5L63.5596 29.4646C63.5596 29.4569 63.557 29.4511 63.557 29.4415L63.5512 29.428C63.5342 29.3572 63.5179 29.298 63.4905 29.2453L58.7001 18.9335L58.6975 18.9226C58.0947 17.2763 56.3366 16.0026 54.2183 16H21.6923C19.6132 16 17.9568 17.2127 17.3651 18.8338L17.3592 18.8486L12.4893 29.3238C12.4782 29.3591 12.4612 29.4177 12.4508 29.4762L12.4449 29.4994L12.4371 29.52C12.1468 30.3383 12 31.1778 12 32.0218C12.0026 34.9457 13.7392 37.629 16.532 39.0359L16.855 39.1942C17.9718 39.6934 19.2746 39.9481 20.7288 39.9481C23.3089 39.9379 27.3497 38.3965 29.0035 36.5926L29.3322 36.2311L29.661 36.5926C32.7168 38.9015 35.4841 39.7121 38.0473 39.7288C40.602 39.7082 43.7334 38.9021 46.2496 36.5823L46.579 36.2266L46.9078 36.5823C48.5583 38.3913 52.6963 39.9282 55.2843 39.9282C56.8741 39.9173 58.2787 39.6175 59.4562 39.0218C62.2601 37.6148 63.9993 34.9206 63.9993 31.9871C64.0052 31.1636 63.8591 30.3151 63.5792 29.5328ZM58.2761 36.3681C57.4606 36.7759 56.4514 36.9895 55.2817 36.994C53.1028 36.994 49.4103 35.5678 48.2602 33.8585L48.2439 33.8405L48.2328 33.8173C48.1689 33.6906 48.0619 33.4725 47.8596 33.2718C47.6444 33.0499 47.249 32.6825 46.5849 32.6825C46.065 32.6825 45.5783 32.972 45.3128 33.2744L45.3017 33.284C45.1138 33.4802 45.0029 33.6874 44.9311 33.8238L44.909 33.8591C43.7673 35.5575 40.1929 37.0886 38.0473 37.1034C35.8853 37.0937 32.144 35.506 30.9964 33.8006L30.9854 33.7858L30.9717 33.7626C30.9051 33.6333 30.6964 33.3857 30.5417 33.2274L30.5359 33.219C30.254 32.9109 29.86 32.6246 29.3127 32.6246C28.7653 32.6246 28.3746 32.8903 28.1312 33.1554L28.1201 33.1663C27.9049 33.3857 27.7365 33.6687 27.6759 33.7897L27.6648 33.8154L27.6485 33.8386C26.4951 35.5363 23.2632 36.9059 21.0954 36.9117C19.9955 36.9117 19.0385 36.7277 18.253 36.3662H18.2478L18.1506 36.3147C16.1073 35.3182 15.254 33.9447 15.2514 31.816C15.2514 31.1849 15.3649 30.5538 15.5913 29.9413C15.6024 29.9169 15.6135 29.8828 15.622 29.8448L15.6298 29.812L20.0809 20.3752C20.3771 19.591 20.6961 19.1928 21.7438 19.1928H54.0213L54.0324 19.1954C54.4995 19.2211 55.1643 19.2867 55.6007 20.4389L60.3604 29.96L60.3663 29.9928C60.3774 30.0366 60.3937 30.0842 60.4048 30.1279C60.6318 30.7397 60.7473 31.3656 60.7473 31.9929C60.7531 34.0927 60.2886 35.3555 58.2761 36.3681Z" fill="white"/>
	<path d="M54.1095 58.9997H22.046C20.0785 58.9997 18.4775 57.7427 18.4775 55.8191V43.8599C18.4775 42.7894 19.0458 41.9209 20.132 41.9209C21.2182 41.9209 21.8386 42.7894 21.8386 43.8599V55.7876H54.1604V43.8599C54.1604 42.7894 54.7808 41.9209 55.867 41.9209C56.9532 41.9209 57.6773 42.7894 57.6773 43.8599V55.8191C57.6773 57.742 56.0771 58.9997 54.1095 58.9997Z" fill="white"/>
	<path d="M51.4967 27.1221H24.3625C23.4668 27.1221 22.7407 26.4061 22.7407 25.5221C22.7407 24.6382 23.4668 23.9229 24.3625 23.9229H51.4967C52.3924 23.9229 53.1191 24.6389 53.1191 25.5221C53.1191 26.4054 52.393 27.1221 51.4967 27.1221Z" fill="white"/>
</svg>
