<svg width="75" height="75" viewBox="0 0 75 75" fill="none" xmlns="http://www.w3.org/2000/svg">
	<rect width="75" height="75" rx="12" fill="#ECB43B"/>
	<path d="M44.9 32.1472C45.2701 31.7648 45.8249 31.3825 46.1949 30.8091C48.4147 28.1329 49.3401 24.6913 48.7848 21.0594C48.0452 15.8979 44.1604 11.883 39.165 11.1188C35.0949 10.5454 31.2096 12.0745 28.6198 15.1331C26.5848 18.0008 25.4746 21.4418 26.0299 24.8828C26.5848 27.7505 27.8802 30.2358 30.1 32.1472C23.6249 34.4416 19 40.7503 19 48.0148V52.2206C19 54.8968 21.035 56.9997 23.6249 56.9997H51.3751C53.965 56.9997 56 54.8968 56 52.2206V48.0148C56 40.7503 51.3751 34.4416 44.9 32.1472ZM31.5802 17.8093C33.0599 15.8979 35.2802 14.9416 37.5 14.9416C37.8701 14.9416 38.2401 14.9416 38.7949 15.1325C42.1249 15.7064 44.7147 18.5735 45.2701 21.8236C45.6401 24.3089 44.9 26.6028 43.4198 28.3233C41.5701 30.4262 38.9797 31.5734 36.2051 30.9995C32.8751 30.4262 30.2848 27.5579 29.7299 24.3084C29.3599 22.014 30.1 19.5293 31.5802 17.8087V17.8093ZM52.3 52.22C52.3 52.7933 51.9299 53.1757 51.3751 53.1757H23.6249C23.0701 53.1757 22.7 52.7933 22.7 52.22V48.0142C22.7 40.7498 28.435 35.0144 35.2802 35.0144H39.535C46.565 35.0144 52.1152 40.9407 52.1152 48.0142V52.22H52.3Z" fill="white"/>
</svg>
