<svg width="96" height="33" viewBox="0 0 96 33" fill="none" xmlns="http://www.w3.org/2000/svg">
	<path fill-rule="evenodd" clip-rule="evenodd" d="M27.1235 28.0273C24.2452 30.5344 20.4583 32.0566 16.3097 32.0566C7.30212 32.0566 0 24.8805 0 16.0283C0 7.17612 7.30212 0 16.3097 0C21.4681 0 26.0672 2.35344 29.0559 6.02734H94.1335C94.9712 6.02734 95.6504 6.70648 95.6504 7.54424V26.5104C95.6504 27.3482 94.9713 28.0273 94.1335 28.0273H27.1235Z" fill="url(#paint0_linear_572_10372)" fill-opacity="0.6"/>
	<path d="M11.3521 15.4944L19.8673 15.4525L15.7724 26.7125L11.3521 15.4944ZM12.3281 11.4131L18.8149 11.476L19.9629 14.2178L11.5434 14.1549L12.3281 11.4131ZM10.4721 14.071L5.34375 11.7271L8.09928 9.48761L11.3905 11.3504L10.4721 14.071ZM5.34375 13.0874L10.2041 15.4525L15.428 26.6289L5.34375 13.0874ZM21.092 15.4315L25.6463 12.8572L16.0596 26.566L21.092 15.4315ZM20.9964 14.0503L19.7144 11.1619L22.642 9.38301L25.1679 11.7062L20.9964 14.0503ZM12.2325 10.0318L11.1225 9.71778L9.03689 8.44112L11.4861 7.47852H19.4848L21.9148 8.58792L19.5804 9.82289L18.7959 10.0321L12.2325 10.0318Z" fill="#F0A535"/>
	<defs>
		<linearGradient id="paint0_linear_572_10372" x1="-11.2118" y1="2.13712" x2="107.687" y2="2.13712" gradientUnits="userSpaceOnUse">
			<stop stop-color="#605E6D"/>
			<stop offset="1" stop-color="white" stop-opacity="0"/>
		</linearGradient>
	</defs>
</svg>
