<svg width="88" height="20" viewBox="0 0 88 20" fill="none" xmlns="http://www.w3.org/2000/svg">
	<path fill-rule="evenodd" clip-rule="evenodd" d="M28.0299 0H0V17.8374L0.25686 17.5797L2.74854 20H28.0299V11.875H34.983V20H44.4644V11.875H50.7854V20H71.0126V8.125H60.899V1.875H72.9089V20H76.7015V11.875H83.6546V20H88V0H83.6546V8.125H76.7015V0H57.1064V11.875H67.22V18.125H54.578V0H40.6719V18.125H38.1435V0H34.983V8.125H28.0299V0ZM1.62987 2.10547H11.9509V12.146V18.4213H8.72555H2.91999V17.7937H1.62987V14.6561H8.72555V12.146H1.62987V2.10547ZM5.50024 5.87065H8.30816V8.38077H5.50024V5.87065ZM14.1237 1.875H24.2373V18.125H20.4447V5.625H14.1237V1.875ZM44.4644 3.75H50.7854V8.125H44.4644V3.75Z" fill="url(#paint0_linear_547_13234)"/>
	<defs>
		<linearGradient id="paint0_linear_547_13234" x1="88" y1="0" x2="0" y2="0" gradientUnits="userSpaceOnUse">
			<stop offset="0.630208" stop-color="white"/>
			<stop offset="0.634667" stop-color="#FF9C00"/>
		</linearGradient>
	</defs>
</svg>
