<svg width="17" height="14" viewBox="0 0 17 14" fill="none" xmlns="http://www.w3.org/2000/svg">
	<path fill-rule="evenodd" clip-rule="evenodd" d="M16.2611 13.9996H5.91108C5.81419 13.9998 5.71821 13.9809 5.62862 13.944C5.53904 13.9071 5.4576 13.8529 5.38897 13.7845C5.32035 13.7161 5.26587 13.6348 5.22865 13.5454C5.19144 13.4559 5.17221 13.36 5.17208 13.2631V11.7796C5.17228 11.6827 5.19155 11.5869 5.2288 11.4975C5.26604 11.4081 5.32053 11.3269 5.38915 11.2585C5.45777 11.1902 5.53919 11.136 5.62874 11.0992C5.71829 11.0623 5.81423 11.0434 5.91108 11.0436H16.2611C16.3579 11.0434 16.4539 11.0623 16.5434 11.0992C16.633 11.136 16.7144 11.1902 16.783 11.2585C16.8516 11.3269 16.9061 11.4081 16.9434 11.4975C16.9806 11.5869 16.9999 11.6827 17.0001 11.7796V13.2636C16.9999 13.3604 16.9806 13.4563 16.9434 13.5457C16.9061 13.6351 16.8516 13.7163 16.783 13.7846C16.7144 13.853 16.633 13.9071 16.5434 13.944C16.4539 13.9809 16.3579 13.9998 16.2611 13.9996ZM16.2611 8.47759H5.91108C5.81419 8.47779 5.71821 8.45889 5.62862 8.42198C5.53904 8.38507 5.4576 8.33086 5.38897 8.26247C5.32035 8.19407 5.26587 8.11282 5.22865 8.02336C5.19144 7.9339 5.17221 7.83798 5.17208 7.74109V6.25809C5.17221 6.1612 5.19144 6.06528 5.22865 5.97582C5.26587 5.88636 5.32035 5.80511 5.38897 5.73672C5.4576 5.66832 5.53904 5.61412 5.62862 5.5772C5.71821 5.54029 5.81419 5.52139 5.91108 5.52159H16.2611C16.358 5.52139 16.454 5.54029 16.5435 5.5772C16.6331 5.61412 16.7146 5.66832 16.7832 5.73672C16.8518 5.80511 16.9063 5.88636 16.9435 5.97582C16.9807 6.06528 17 6.1612 17.0001 6.25809V7.74159C17 7.83848 16.9807 7.9344 16.9435 8.02386C16.9063 8.11332 16.8518 8.19457 16.7832 8.26297C16.7146 8.33136 16.6331 8.38557 16.5435 8.42248C16.454 8.45939 16.358 8.47779 16.2611 8.47759ZM16.2611 2.95559H5.91108C5.81419 2.95579 5.71821 2.93689 5.62862 2.89998C5.53904 2.86307 5.4576 2.80886 5.38897 2.74047C5.32035 2.67207 5.26587 2.59082 5.22865 2.50136C5.19144 2.4119 5.17221 2.31598 5.17208 2.21909V0.736092C5.17086 0.638986 5.18962 0.542667 5.22721 0.453123C5.2648 0.36358 5.32041 0.282727 5.39058 0.215592C5.45841 0.145979 5.53974 0.0909562 5.62958 0.0538992C5.71943 0.0168421 5.8159 -0.00146806 5.91308 9.19228e-05H16.2631C16.3603 -0.00146806 16.4567 0.0168421 16.5466 0.0538992C16.6364 0.0909562 16.7178 0.145979 16.7856 0.215592C16.855 0.283071 16.9099 0.364078 16.9468 0.453606C16.9837 0.543133 17.0018 0.639276 17.0001 0.736092V2.22009C16.9999 2.31694 16.9806 2.4128 16.9434 2.50221C16.9061 2.59161 16.8516 2.6728 16.783 2.74114C16.7144 2.80949 16.633 2.86365 16.5434 2.90053C16.4539 2.93741 16.3579 2.95579 16.2611 2.95559ZM2.21758 13.9996H0.739083C0.642233 13.9998 0.546292 13.9809 0.456739 13.944C0.367186 13.9071 0.285774 13.853 0.217152 13.7846C0.148529 13.7163 0.0940399 13.6351 0.0567952 13.5457C0.0195504 13.4563 0.000279483 13.3604 8.27003e-05 13.2636V11.7796C-0.00139936 11.6826 0.0170526 11.5864 0.0542945 11.4969C0.0915363 11.4073 0.146774 11.3264 0.216583 11.2591C0.284406 11.1895 0.365736 11.1345 0.455585 11.0974C0.545433 11.0603 0.641905 11.042 0.739083 11.0436H2.21758C2.31443 11.0434 2.41037 11.0623 2.49993 11.0992C2.58948 11.136 2.67089 11.1902 2.73951 11.2585C2.80814 11.3269 2.86263 11.4081 2.89987 11.4975C2.93711 11.5869 2.95639 11.6827 2.95658 11.7796V13.2636C2.95639 13.3604 2.93711 13.4563 2.89987 13.5457C2.86263 13.6351 2.80814 13.7163 2.73951 13.7846C2.67089 13.853 2.58948 13.9071 2.49993 13.944C2.41037 13.9809 2.31443 13.9998 2.21758 13.9996ZM2.21758 8.47759H0.739083C0.642233 8.47779 0.546292 8.45891 0.456739 8.42203C0.367186 8.38515 0.285774 8.33099 0.217152 8.26264C0.148529 8.1943 0.0940399 8.11311 0.0567952 8.02371C0.0195504 7.93431 0.000279483 7.83844 8.27003e-05 7.74159V6.25809C-0.00139936 6.16113 0.0170526 6.0649 0.0542945 5.97536C0.0915363 5.88583 0.146774 5.8049 0.216583 5.73759C0.284406 5.66798 0.365736 5.61296 0.455585 5.5759C0.545433 5.53884 0.641905 5.52053 0.739083 5.52209H2.21758C2.31447 5.52189 2.41046 5.54079 2.50004 5.5777C2.58963 5.61462 2.67106 5.66882 2.73969 5.73722C2.80832 5.80561 2.8628 5.88686 2.90001 5.97632C2.93723 6.06578 2.95645 6.1617 2.95658 6.25859V7.74209C2.95639 7.83894 2.93711 7.9348 2.89987 8.02421C2.86263 8.11361 2.80814 8.1948 2.73951 8.26314C2.67089 8.33149 2.58948 8.38565 2.49993 8.42253C2.41037 8.45941 2.31443 8.47779 2.21758 8.47759ZM2.21758 2.95559H0.739083C0.543572 2.95599 0.355903 2.87874 0.217328 2.74082C0.078753 2.6029 0.000612495 2.4156 8.27003e-05 2.22009V0.736092C-0.00139936 0.639131 0.0170526 0.5429 0.0542945 0.453365C0.0915363 0.36383 0.146774 0.282899 0.216583 0.215592C0.284406 0.145979 0.365736 0.0909562 0.455585 0.0538992C0.545433 0.0168421 0.641905 -0.00146806 0.739083 9.19228e-05H2.21758C2.31476 -0.00146806 2.41123 0.0168421 2.50108 0.0538992C2.59093 0.0909562 2.67226 0.145979 2.74008 0.215592C2.80989 0.282899 2.86513 0.36383 2.90237 0.453365C2.93961 0.5429 2.95806 0.639131 2.95658 0.736092V2.22009C2.95639 2.31694 2.93711 2.4128 2.89987 2.50221C2.86263 2.59161 2.80814 2.6728 2.73951 2.74114C2.67089 2.80949 2.58948 2.86365 2.49993 2.90053C2.41037 2.93741 2.31443 2.95579 2.21758 2.95559Z" fill="white"/>
</svg>
