<svg width="11" height="11" viewBox="0 0 11 11" fill="none" xmlns="http://www.w3.org/2000/svg">
	<circle opacity="0.2" cx="5.78613" cy="5.51562" r="5" fill="white"/>
	<path d="M8.78613 5.51562C8.78613 5.7644 8.58446 5.96607 8.33569 5.96607H6.2248V8.07107C6.2248 8.31659 6.02576 8.51562 5.78024 8.51562C5.53472 8.51562 5.33569 8.31659 5.33569 8.07107V5.96607H3.23657C2.9878 5.96607 2.78613 5.7644 2.78613 5.51562C2.78613 5.26685 2.9878 5.06518 3.23657 5.06518H5.33569V2.96018C5.33569 2.71466 5.53472 2.51562 5.78024 2.51562C6.02576 2.51562 6.2248 2.71466 6.2248 2.96018V5.06518H8.33569C8.58446 5.06518 8.78613 5.26685 8.78613 5.51562Z" fill="#F0A535"/>
</svg>
